<svg width="149" height="59" viewBox="0 0 149 59" fill="none" xmlns="http://www.w3.org/2000/svg">
<g clip-path="url(#clip0_21_23)">
<path d="M28.8323 59C27.7623 59 26.6784 58.9691 25.5789 58.9059C14.0328 58.2358 5.59965 51.9188 1.83238 41.1178C-0.894427 33.3005 -0.571478 24.6853 2.74366 16.8624C6.46178 8.08421 17.7734 -0.153113 30.2687 1.25162C46.169 3.03983 59.1712 10.5327 59.7174 10.8501L59.8704 10.9428L76.1835 21.0611C77.356 21.4095 78.4273 22.0795 79.2852 23.0446C80.2176 24.0925 82.1637 26.9947 80.0814 31.3002C78.0861 35.4273 71.4881 42.6152 62.7419 48.369C55.2059 53.3263 43.3944 59 28.8323 59ZM27.5068 14.1611C25.0117 14.1611 22.4 14.9351 20.0256 16.396C17.1331 18.1758 15.4131 20.436 14.7686 21.9587C12.7228 26.7896 12.5079 32.0643 14.1634 36.8137C16.1895 42.6237 20.0579 45.4992 26.3357 45.863C38.7594 46.5836 49.0151 41.7359 55.4306 37.5428C59.664 34.7755 62.9258 31.8606 65.1233 29.5709L53.0927 22.109C52.1772 21.5935 41.3865 15.6487 28.8112 14.2341C28.3816 14.1864 27.9463 14.1625 27.5082 14.1625L27.5068 14.1611Z" fill="black"/>
<path d="M119.529 57.945C105.561 57.945 94.1072 52.7279 86.6864 48.0909C77.8081 42.5422 71.0459 35.5101 68.9537 31.4308C66.7717 27.1759 68.649 24.2288 69.5575 23.1584C70.3929 22.175 71.4474 21.4797 72.6115 21.1032L88.7603 10.5579L88.8361 10.5116C89.3739 10.1815 102.199 2.38804 118.053 0.228972C130.513 -1.46654 142.013 6.5067 145.933 15.1935C149.428 22.9378 149.952 31.5418 147.408 39.4223C143.893 50.3075 135.609 56.8199 124.082 57.7582C122.538 57.8846 121.016 57.9436 119.526 57.9436L119.529 57.945ZM83.8697 29.3532C86.1191 31.5923 89.4483 34.4299 93.7449 37.0975C100.256 41.1403 110.621 45.7478 123.025 44.7378C129.293 44.2279 133.094 41.2625 134.984 35.4076C136.53 30.6217 136.192 25.3525 134.033 20.5708C133.354 19.0636 131.582 16.8441 128.647 15.1331C125.815 13.4812 122.678 12.7858 119.815 13.1749C107.16 14.8971 96.6121 21.0808 95.7304 21.6089L83.8697 29.3532Z" fill="black"/>
</g>
<defs>
<clipPath id="clip0_21_23">
<rect width="149" height="59" fill="white"/>
</clipPath>
</defs>
</svg>
