<svg width="82" height="104" viewBox="0 0 82 104" fill="none" xmlns="http://www.w3.org/2000/svg">
<g clip-path="url(#clip0_19_7)">
<path d="M78.1374 75.4502C77.7839 73.9783 75.7462 73.8103 75.1535 75.2045L72.8665 80.5868C70.9882 79.6146 68.3299 78.4006 65.0968 77.3575C62.4368 76.4995 59.7495 75.8717 57.0711 75.4796C57.3594 75.1735 57.6554 74.8718 57.9615 74.5778C59.5761 73.0239 61.4394 71.6313 63.4983 70.4389C65.0009 69.5687 66.3953 68.9304 67.5131 68.4812L69.0463 73.6106C69.4801 75.0614 71.524 75.1186 72.0391 73.6949L77.6669 58.1419L62.0315 52.5439C60.5997 52.0314 59.3419 53.6347 60.1894 54.8915L63.8836 60.3703C59.3252 62.2465 51.9792 66.2734 46.9157 74.0338V66.6971C47.6644 63.0085 49.0109 59.4247 50.9232 56.0356C52.5696 53.1173 54.6397 50.3294 57.075 47.7489C59.7177 44.9487 62.235 42.9916 63.7593 41.9129L66.3891 47.7278C67.0136 49.1082 69.0469 48.8935 69.3663 47.4144L72.8587 31.2536L56.6123 27.7796C55.1248 27.4613 54.0928 29.2177 55.1013 30.3507L58.8145 34.5235C56.9535 35.8229 53.9584 38.1294 50.8022 41.4332C49.4084 42.8923 48.111 44.4124 46.9151 45.9819V27.3149C48.6959 25.2901 50.7766 23.5037 53.1199 21.9947C55.3829 20.5378 57.8985 19.3288 60.5975 18.402C62.9603 17.5907 65.0611 17.1364 66.5709 16.8858L66.184 22.9769C66.0881 24.487 67.9865 25.2424 68.9638 24.0827L79.6383 11.4142L66.9043 0.794263C65.7385 -0.177938 64.0018 0.895754 64.3614 2.36598L65.7463 8.02671C60.8813 8.75489 50.7565 11.1751 42.456 19.1163C33.5818 10.6266 22.6229 8.44653 18.2346 7.8986L19.2566 1.83191C19.508 0.339497 17.6971 -0.605529 16.6055 0.448197L4.6788 11.9588L16.2504 23.8226C17.3097 24.9085 19.1484 24.0184 18.9421 22.5193L18.1644 16.8564C19.6847 17.101 21.8569 17.5579 24.3128 18.4015C27.0118 19.3282 29.5274 20.5372 31.7904 21.9941C34.1332 23.5026 36.215 25.2873 37.9957 27.3116V31.263C27.1518 27.9632 17.1636 30.2248 12.5283 31.7017L11.2471 26.0171C10.9142 24.5403 8.87924 24.3439 8.26707 25.7299L1.58283 40.8636L16.7973 47.512C18.19 48.1204 19.5554 46.6064 18.7966 45.2953L15.7352 40.0062C17.2004 39.5653 19.2856 39.0456 21.7655 38.7312C24.5977 38.3718 27.3915 38.3457 30.0693 38.6541C31.2067 38.785 32.3245 38.9785 33.4212 39.2303C32.0658 40.2441 30.7668 41.3505 29.5302 42.5462C26.9728 45.0186 24.6774 47.8725 22.7082 51.0282C21.456 53.0347 20.4921 54.917 19.7723 56.4998L14.6051 53.2427C13.32 52.4324 11.7416 53.7251 12.2936 55.1355L18.326 70.5382L33.8104 64.5375C35.2282 63.9879 35.1172 61.957 33.6481 61.5638L27.9541 60.0386C28.5523 58.7353 29.3674 57.1575 30.4351 55.4732C32.0196 52.9742 33.8483 50.7265 35.8699 48.792C36.5551 48.136 37.2654 47.517 37.9957 46.9325V75.7763C36.5239 75.021 34.9856 74.3782 33.3855 73.8508C29.8396 72.6822 26.0005 72.0833 21.9745 72.07C21.9288 72.07 21.8842 72.07 21.8385 72.07C18.4002 72.07 15.4085 72.5025 13.2798 72.934L13.8357 67.2217C13.9823 65.7154 12.1101 64.8974 11.0943 66.0243L0 78.3302L12.3722 89.3655C13.5051 90.376 15.2769 89.3605 14.9664 87.8792L13.7208 81.9301C15.2485 81.5463 18.4069 80.9007 22.2159 80.9446C25.2539 80.98 28.118 81.4442 30.7283 82.3233C33.41 83.2262 35.8481 84.5821 37.9946 86.3624V90.5573L32.0257 89.6544C30.5215 89.427 29.5988 91.2422 30.6748 92.312L42.4253 104.001L54.1758 92.312C55.2519 91.2417 54.3292 89.427 52.825 89.6544L46.9157 90.5484V84.0619C48.8453 83.8562 50.8095 83.8162 52.7932 83.9438C55.8568 84.1412 58.9806 84.7369 62.0777 85.7135C64.5933 86.5066 66.6908 87.4289 68.215 88.1881L64.2672 92.8339C63.2848 93.9897 64.3569 95.7217 65.8366 95.3701L81.9989 91.5278L78.1363 75.4508L78.1374 75.4502Z" fill="#231F20"/>
</g>
<defs>
<clipPath id="clip0_19_7">
<rect width="82" height="104" fill="white"/>
</clipPath>
</defs>
</svg>
