<svg width="117" height="81" viewBox="0 0 117 81" fill="none" xmlns="http://www.w3.org/2000/svg">
<g clip-path="url(#clip0_16_11)">
<path d="M116 19.8412C113.349 23.3579 105.518 28.7148 94.6197 24.3632C94.4115 24.5858 94.1859 24.8189 93.9325 25.0554C92.2526 26.6416 89.5349 28.5861 85.1824 30.9167C83.6656 31.8489 82.1662 32.7255 80.6876 33.5464C80.0663 33.8908 79.4451 34.2317 78.8307 34.5586C82.5203 34.0891 83.8878 34.9795 83.9086 34.9969L83.9676 35.0422L84.0405 35.0665C84.6375 35.2369 85.6128 36.7466 85.3872 38.3502C85.172 39.9155 83.6726 42.5522 76.0123 42.6392C69.3795 42.7192 65.4504 42.3331 63.3228 41.9991C62.7501 41.9087 62.2711 41.8182 61.8754 41.7313C61.6117 41.8148 61.3513 41.8913 61.091 41.9678C60.8307 42.0443 60.5704 42.1244 60.3101 42.1939C60.3101 42.1939 60.3124 42.1951 60.317 42.1974H60.3101C60.1608 42.2391 60.015 42.2844 59.8658 42.3226C58.5573 42.6913 57.2696 43.0183 56.0027 43.307C55.9576 43.3175 55.9055 43.3279 55.8639 43.3383C55.6764 43.3801 55.4855 43.4253 55.2981 43.4636C55.4196 45.5994 55.5064 51.1684 58.2727 52.7929C59.4805 53.3251 63.3575 56.7479 63.8955 58.7098C64.2981 60.1812 66.1481 64.2823 67.3421 66.8494C67.592 67.3886 68.7513 68.9643 68.9248 69.1278C70.4312 70.5853 72.6664 72.7802 73.1246 73.5559C73.1732 73.6464 73.1593 73.6812 73.1558 73.702C73.0274 74.0847 71.7154 74.5995 70.327 75.1491C69.0706 75.6395 67.5087 76.2552 65.8045 77.1144C64.3606 77.8414 62.8959 78.6589 61.6811 79.3372C61.6047 79.3789 61.5249 79.4241 61.452 79.4659L61.2889 79.5633C61.1986 79.6085 60.8342 79.8416 60.6953 79.8937C59.4042 80.3981 56.8808 81.2051 54.4929 80.9512C54.2291 80.9199 53.9618 80.8782 53.705 80.8225C53.4273 80.7599 53.1566 80.6834 52.8858 80.586C53.2503 80.3007 54.0902 79.8729 54.9684 79.4589C55.7702 79.0798 56.5928 78.7145 57.1203 78.4815C57.634 78.2554 57.9776 78.1023 58.1998 77.9945C58.4774 77.7788 58.7482 77.5423 59.012 77.2849C61.5422 74.8604 63.6109 71.0027 64.3675 69.4896C64.4994 69.2287 64.607 69.0791 64.6383 68.94C64.6695 68.7939 64.3328 68.4739 64.253 68.373C64.246 68.3695 64.2426 68.3626 64.2426 68.3591L64.2356 68.3521C59.5257 63.6492 52.7991 56.981 52.2576 56.7862C51.7856 56.6192 50.727 55.04 50.4181 54.4243C50.2584 54.1077 50.2515 53.2207 50.2792 52.7337V52.6711L48.2939 45.9472L48.0509 45.1298L47.9537 44.7924C47.9537 44.7924 47.9711 44.768 47.9815 44.761L47.9503 44.6671C47.9503 44.6671 47.926 44.6706 47.919 44.6706C47.6761 44.6915 47.4331 44.7123 47.1971 44.7297C47.1485 44.7367 47.0999 44.7402 47.0548 44.7437C45.7011 46.3368 43.0598 50.1666 42.8828 53.4433C42.7057 56.7131 43.8373 59.8194 42.8723 61.6108C42.1331 62.9813 39.8249 70.1922 39.8735 70.9123C40.5469 73.6325 43.2437 76.8883 42.9314 78.7493C42.6641 79.0485 41.2584 79.0311 39.7659 79.0102C38.4157 78.9893 36.7393 78.965 34.8338 79.1076C33.1157 79.2433 31.3907 79.452 29.7246 79.6537C26.6321 80.0329 23.7096 80.3877 22.3941 79.9772C22.1963 79.9181 21.7451 79.7442 21.7659 79.4694C21.8076 78.878 23.3313 77.7719 26.4551 77.2675C29.8496 76.7179 33.9452 73.5664 35.8473 71.9663C36.1388 71.7263 36.5449 70.7836 36.5415 70.4462C36.4894 65.4546 36.3089 53.6138 35.7987 52.1911C35.3405 50.911 36.3263 48.6883 36.7046 48.3021C36.833 48.1734 37.8743 45.9542 38.0131 44.9628C37.8222 44.9558 37.6452 44.9419 37.4751 44.935C36.3367 44.8619 35.7432 44.775 35.7432 44.775C35.7223 44.775 35.705 44.7715 35.6842 44.768C35.462 44.7471 35.2433 44.7297 35.0282 44.7054C34.9865 44.7019 34.9449 44.695 34.9032 44.6915C19.4474 43.0392 8.84728 35.6335 3.48477 30.861C3.14115 30.5549 3.36329 29.9879 3.82491 29.9949C15.9244 30.2349 17.2086 33.7586 28.1489 31.5741C14.3105 32.075 13.4809 25.7129 0.458157 26.6381C0.0728888 26.6694 -0.145777 26.2103 0.111068 25.9216C3.0162 22.7561 15.0185 11.2528 37.0066 10.3867C37.2946 10.3797 37.5793 10.3693 37.8708 10.3588C37.8882 8.89787 38.565 4.93239 44.8959 2.32005C49.0019 0.632986 51.7682 0.145998 53.3648 0.0312079C53.882 -0.00357699 54.3089 -0.00705548 54.6595 0.00685846L46.7597 4.15321L49.7065 3.56535C49.7482 3.55839 54.2846 2.6679 59.838 3.18271C64.9194 3.65579 71.9341 5.43677 76.4462 11.2493C79.3375 14.9643 79.3444 16.6305 78.8411 17.368C78.2649 18.2237 76.7308 18.422 75.0579 18.3315C75.2939 18.4289 75.5299 18.5333 75.7624 18.6307C76.1512 18.7976 76.5434 18.9716 76.9356 19.142C77.189 19.1107 77.4319 19.069 77.6645 19.0098C82.0378 19.7647 86.9387 19.8794 90.5762 19.8203C90.8781 19.8168 91.1732 19.8099 91.4578 19.7994V19.8168C91.4578 19.8168 91.4578 19.8064 91.4613 19.7994H91.4578C91.9472 17.4341 94.5017 7.85432 104.276 5.0124C106.476 4.36888 107.889 4.42801 108.354 5.17937C109.531 7.08558 105.463 13.5277 102.631 17.1454L101.94 18.0254L103.016 17.8828C109.229 17.0723 116.341 16.7697 116.983 17.7019C117.052 17.8167 116.962 18.5646 116 19.8412Z" fill="black"/>
</g>
<defs>
<clipPath id="clip0_16_11">
<rect width="117" height="81" fill="white"/>
</clipPath>
</defs>
</svg>
