<?xml version="1.0" encoding="UTF-8"?>
<svg id="Layer_1" data-name="Layer 1" xmlns="http://www.w3.org/2000/svg" xmlns:xlink="http://www.w3.org/1999/xlink" viewBox="0 0 101.648 101.648">
  <defs>
    <style>
      .cls-1, .cls-2 {
        fill: none;
      }

      .cls-3 {
        clip-path: url(#clippath);
      }

      .cls-4 {
        fill: #fdd700;
      }

      .cls-5 {
        stroke-width: .648px;
      }

      .cls-5, .cls-2 {
        stroke: #000;
      }

      .cls-5, .cls-6 {
        fill: #fff;
      }

      .cls-2 {
        stroke-width: .5px;
      }

      .cls-6, .cls-7 {
        fill-rule: evenodd;
      }
    </style>
    <clipPath id="clippath">
      <rect class="cls-1" x=".324" y=".324" width="101" height="101"/>
    </clipPath>
  </defs>
  <g class="cls-3">
    <g>
      <path class="cls-2" d="m94.9129.324H6.7351"/>
      <path class="cls-5" d="m6.6365.324h88.375c3.4719,0,6.3125,2.8406,6.3125,6.3125v88.375c0,3.4719-2.8406,6.3125-6.3125,6.3125H6.6365c-3.4719,0-6.3125-2.8406-6.3125-6.3125V6.6365c0-3.4719,2.8406-6.3125,6.3125-6.3125Z"/>
      <path class="cls-7" d="m6.6562,2.0797h82.674c2.4856,0,6.352-.6904,8.4825.9666,2.3474,1.8346,1.7556,5.267,1.7556,7.8906v83.9168c0,3.1365-2.5052,4.6949-5.3459,4.6949H9.1023c-2.7815,0-5.8983-.0197-6.8451-3.3141-.2762-.9468-.1775-1.9923-.1775-2.9787V14.034c0-3.8073-1.4204-11.9346,4.5765-11.9543Z"/>
      <path class="cls-6" d="m6.6957,4.5257h87.7043c.7101,0,1.3611,0,1.9332.4734,1.44,1.1836.7693,4.5568.7693,6.0955v83.759c0,1.8543-1.5387,2.2291-3.0576,2.2291H8.8459c-1.5584,0-3.827.3551-4.2807-1.6768-.1578-.7693-.0395-1.6767-.0395-2.4461V6.7746c0-1.2231.9074-2.2685,2.1699-2.2488h.0001Z"/>
      <path class="cls-4" d="m50.8832,50.9226c.098,0,.1775-.0795.1775-.1775,0-.0981-.0795-.1776-.1775-.1776-.0981,0-.1775.0795-.1775.1776,0,.098.0794.1775.1775.1775Z"/>
    </g>
  </g>
</svg>