<svg width="381" height="473" viewBox="0 0 381 473" fill="none" xmlns="http://www.w3.org/2000/svg">
<g clip-path="url(#clip0_48_7)">
<path fill-rule="evenodd" clip-rule="evenodd" d="M24.0907 472.691H356.922C363.187 472.691 369.303 470.171 373.74 465.76C378.166 461.373 380.702 455.294 380.702 449.067V23.9329C380.702 17.718 378.166 11.639 373.74 7.22803C369.303 2.84177 363.187 0.321212 356.922 0.321212H24.0907C17.8256 0.308857 11.7097 2.82941 7.2844 7.21568C2.84665 11.6267 0.310791 17.7056 0.310791 23.9329V449.079C0.310791 457.172 4.63666 464.82 11.4984 469.17C15.4141 471.641 19.5535 472.222 24.0782 472.691" fill="white"/>
<path d="M24.0907 472.691H356.922C363.187 472.691 369.303 470.17 373.74 465.76C378.166 461.373 380.702 455.294 380.702 449.067V23.9329C380.702 17.718 378.166 11.639 373.74 7.22803C369.303 2.84177 363.187 0.321212 356.922 0.321212H24.0907C17.8256 0.308857 11.7097 2.82941 7.2844 7.21568C2.84665 11.6267 0.310791 17.7056 0.310791 23.9329V449.079C0.310791 457.172 4.63666 464.821 11.4984 469.17C15.4141 471.641 19.5535 472.222 24.0782 472.691H24.0907Z" stroke="#231F20" stroke-width="0.5"/>
<path fill-rule="evenodd" clip-rule="evenodd" d="M6.35205 449.067V23.9329C6.35205 19.2501 8.20422 14.765 11.5356 11.466C14.8671 8.15472 19.3794 6.31372 24.0906 6.31372H356.922C361.633 6.31372 366.145 8.15472 369.477 11.466C372.808 14.7774 374.66 19.2625 374.66 23.9329V449.079C374.66 453.75 372.808 458.247 369.477 461.546C366.145 464.858 361.633 466.699 356.922 466.699H24.0906C19.3794 466.699 14.8671 464.858 11.5356 461.546C8.20422 458.235 6.35205 453.75 6.35205 449.079" fill="#231F20"/>
<path fill-rule="evenodd" clip-rule="evenodd" d="M16.3339 449.067C16.3339 451.118 17.0797 453.07 18.5714 454.504C20.0009 455.875 22.0769 456.814 24.0906 456.814H356.922C358.923 456.814 360.974 455.887 362.391 454.504C363.833 453.083 364.679 451.081 364.679 449.067V23.933C364.679 21.919 363.833 19.9297 362.391 18.4965C360.949 17.0632 358.948 16.223 356.922 16.223H24.0782C22.052 16.223 19.9885 17.0509 18.559 18.4965C17.1419 19.9174 16.3215 21.9313 16.3215 23.933V449.079" fill="white"/>
</g>
<defs>
<clipPath id="clip0_48_7">
<rect width="381" height="473" fill="white"/>
</clipPath>
</defs>
</svg>
