<svg width="108" height="110" viewBox="0 0 108 110" fill="none" xmlns="http://www.w3.org/2000/svg">
<g clip-path="url(#clip0_25_2)">
<path d="M6.66744 58.3052C4.52899 46.5291 7.20077 34.6423 14.1917 24.8346C21.182 15.0269 31.6541 8.47198 43.6788 6.37759C63.214 2.97505 81.9336 15.7717 85.4079 34.9032C88.1299 49.8925 77.8928 64.2554 62.5871 66.9211C56.8124 67.9268 50.9828 66.6703 46.1731 63.3824C41.3635 60.0944 38.1493 55.1693 37.122 49.5135C35.4832 40.4898 41.6464 31.8428 50.8607 30.2379C57.9087 29.0103 64.6634 33.6274 65.9166 40.5301C66.3746 43.0522 65.8025 45.5976 64.3052 47.6976C62.8085 49.7977 60.5656 51.2017 57.9902 51.6504C56.0868 51.9823 54.1651 51.5676 52.5794 50.4841C50.9936 49.4001 49.9344 47.7765 49.5956 45.9124C49.3526 44.5742 49.656 43.2235 50.4506 42.1088C51.203 41.0531 52.3113 40.3298 53.5873 40.0541L53.5924 40.6084C53.5924 40.6367 53.5896 40.6651 53.5833 40.6929L53.0859 42.9263C53.0089 43.2706 53.4099 43.5236 53.6985 43.3126L61.0037 37.9733L53.4743 32.3919C53.1526 32.1536 52.7191 32.4929 52.8851 32.8525L53.4983 34.1822C53.5091 34.206 53.5177 34.231 53.5234 34.2571C50.5949 34.7693 47.2746 36.3867 45.5725 38.7749C43.8687 41.1654 43.2173 44.0625 43.7387 46.933C44.3553 50.3293 46.2855 53.2871 49.1741 55.2612C52.0626 57.2359 55.5632 57.9904 59.0307 57.3862C63.1701 56.6652 66.7751 54.4086 69.1816 51.0327C71.5881 47.6562 72.5076 43.5644 71.7718 39.5107C71.3246 37.0475 70.3971 34.7427 69.0156 32.6602C67.682 30.6498 65.9839 28.932 63.9687 27.5547C61.9534 26.1773 59.7214 25.2084 57.3348 24.6758C54.8621 24.1238 52.333 24.0659 49.818 24.5039C46.7726 25.0343 43.9235 26.1337 41.3487 27.772C38.8634 29.3535 36.7398 31.3668 35.0366 33.7562C33.3333 36.1456 32.136 38.7925 31.4772 41.6221C30.795 44.5538 30.7231 47.5524 31.265 50.5346C31.9244 54.1658 33.2911 57.5638 35.3275 60.6333C37.2937 63.5968 39.7966 66.1291 42.7678 68.16C45.7391 70.1908 49.0292 71.6192 52.5474 72.4044C56.1918 73.2178 59.9194 73.3029 63.6276 72.6574C68.164 71.8672 72.4084 70.23 76.2421 67.7901C79.944 65.4348 83.1075 62.4356 85.6446 58.8759C88.1818 55.3162 89.966 51.3742 90.9471 47.1587C91.9636 42.7929 92.0697 38.3268 91.2626 33.8844C90.2718 28.4277 88.2177 23.3222 85.1587 18.7114C82.2045 14.2588 78.4433 10.4535 73.9787 7.40153C69.5141 4.34956 64.5699 2.20355 59.2834 1.0236C53.8086 -0.198882 48.2072 -0.32652 42.6355 0.644095C35.769 1.83992 29.3456 4.31836 23.5435 8.00965C17.9409 11.5744 13.153 16.1138 9.31241 21.5018C5.47187 26.8898 2.77157 32.8571 1.28681 39.2361C-0.251007 45.8426 -0.411291 52.6018 0.809947 59.3263C2.3084 67.5774 5.42624 75.1012 10.0773 81.6879C14.4495 87.8797 20.1513 93.2161 27.0241 97.5485C33.521 101.644 40.9779 104.793 49.1877 106.906C57.1175 108.948 65.5761 109.983 74.3289 109.983V104.158C46.958 104.158 12.813 92.1491 6.66744 58.3052Z" fill="black"/>
<path d="M108 104.14H74.3301V110H108V104.14Z" fill="black"/>
</g>
<defs>
<clipPath id="clip0_25_2">
<rect width="108" height="110" fill="white"/>
</clipPath>
</defs>
</svg>
