<svg width="87" height="87" viewBox="0 0 87 87" fill="none" xmlns="http://www.w3.org/2000/svg">
<g clip-path="url(#clip0_6_2)">
<path d="M10.8614 0C10.8614 0 27.3907 4.9316 43.4764 0C43.4764 0 60.8939 4.71006 75.6479 0C75.6479 0 83.9685 11.3598 84.3011 16.5683H2.54077C2.54077 16.5683 5.9792 5.9297 10.8614 0Z" fill="#EE3524"/>
<path d="M1.76459 18.6741H84.9676C84.9676 18.6741 100.166 67.4374 43.5884 86.8327" fill="#2B3087"/>
<path d="M1.76459 18.6741H84.9676C84.9676 18.6741 100.166 67.4374 43.5884 86.8327" stroke="white" stroke-width="3" stroke-miterlimit="10"/>
<path d="M1.97221 18.7578C1.97221 18.7578 -13.0201 67.5847 43.6392 86.7408L1.97221 18.7578Z" fill="#2B3087"/>
<path d="M1.97221 18.7578C1.97221 18.7578 -13.0201 67.5847 43.6392 86.7408" stroke="white" stroke-width="3" stroke-miterlimit="10"/>
</g>
<defs>
<clipPath id="clip0_6_2">
<rect width="87" height="87" fill="white"/>
</clipPath>
</defs>
</svg>
