<?xml version="1.0" encoding="UTF-8"?>
<svg id="Layer_1" data-name="Layer 1" xmlns="http://www.w3.org/2000/svg" xmlns:xlink="http://www.w3.org/1999/xlink" viewBox="0 0 101 101">
  <defs>
    <style>
      .cls-1 {
        fill: none;
      }

      .cls-2 {
        clip-path: url(#clippath);
      }

      .cls-3 {
        fill: #fdd700;
      }

      .cls-4 {
        fill: #bf311a;
        fill-rule: evenodd;
      }
    </style>
    <clipPath id="clippath">
      <rect class="cls-1" width="101" height="101"/>
    </clipPath>
  </defs>
  <g class="cls-2">
    <g>
      <path class="cls-3" d="m58.942,49.9415c.098,0,.1775-.0795.1775-.1775,0-.0981-.0795-.1776-.1775-.1776-.0981,0-.1775.0795-.1775.1776,0,.098.0794.1775.1775.1775Z"/>
      <path class="cls-4" d="m50.5,6.3125c24.3426,0,44.1875,19.8449,44.1875,44.1875s-19.8449,44.1875-44.1875,44.1875S6.3125,74.8426,6.3125,50.5,26.1574,6.3125,50.5,6.3125Zm22.0938,72.2781c-6.1745,4.8725-14.1243,7.6737-22.0938,7.6737-19.7068,0-35.7643-16.0772-35.7643-35.7643,0-7.9695,2.8012-16.0772,7.6934-22.2121l50.1647,50.3027Zm5.9968-6.0166c4.8922-6.1547,7.6934-14.1045,7.6934-22.074,0-19.7068-16.0772-35.7643-35.7643-35.7643-7.9695,0-15.9193,2.8012-22.0937,7.6737l50.1646,50.1646Z"/>
    </g>
  </g>
</svg>